<?xml version="1.0" encoding="utf-8" standalone="no"?>
<!DOCTYPE svg PUBLIC "-//W3C//DTD SVG 1.1//EN"
  "http://www.w3.org/Graphics/SVG/1.1/DTD/svg11.dtd">
<svg xmlns:xlink="http://www.w3.org/1999/xlink" width="595.275591pt" height="382.677165pt" viewBox="0 0 595.275591 382.677165" xmlns="http://www.w3.org/2000/svg" version="1.1">
 <metadata>
  <rdf:RDF xmlns:dc="http://purl.org/dc/elements/1.1/" xmlns:cc="http://creativecommons.org/ns#" xmlns:rdf="http://www.w3.org/1999/02/22-rdf-syntax-ns#">
   <cc:Work>
    <dc:type rdf:resource="http://purl.org/dc/dcmitype/StillImage"/>
    <dc:date>2026-09-17T00:54:13.930015</dc:date>
    <dc:format>image/svg+xml</dc:format>
    <dc:creator>
     <cc:Agent>
      <dc:title>Matplotlib v3.10.8, https://matplotlib.org/</dc:title>
     </cc:Agent>
    </dc:creator>
   </cc:Work>
  </rdf:RDF>
 </metadata>
 <defs>
  <style type="text/css">*{stroke-linejoin: round; stroke-linecap: butt}</style>
 </defs>
 <g id="figure_1">
  <g id="patch_1">
   <path d="M 0 382.677165 
L 595.275591 382.677165 
L 595.275591 0 
L 0 0 
z
" style="fill: #ffffff"/>
  </g>
  <g id="axes_1">
   <g id="patch_2">
    <path d="M 141.76378 90.466779 
C 204.730709 90.466779 228.71811 90.466779 291.685039 90.466779 
L 291.685039 138.433201 
C 228.71811 138.433201 204.730709 138.433201 141.76378 138.433201 
z
" clip-path="url(#p5b67688cd3)" style="fill: #7996a9; opacity: 0.58; stroke: #ffffff; stroke-width: 0.3; stroke-linejoin: miter"/>
   </g>
   <g id="patch_3">
    <path d="M 141.76378 138.433201 
C 204.730709 138.433201 228.71811 159.332856 291.685039 159.332856 
L 291.685039 173.037548 
C 228.71811 173.037548 204.730709 152.137893 141.76378 152.137893 
z
" clip-path="url(#p5b67688cd3)" style="fill: #7996a9; opacity: 0.58; stroke: #ffffff; stroke-width: 0.3; stroke-linejoin: miter"/>
   </g>
   <g id="patch_4">
    <path d="M 141.76378 152.137893 
C 204.730709 152.137893 228.71811 238.477452 291.685039 238.477452 
L 291.685039 245.329798 
C 228.71811 245.329798 204.730709 158.990239 141.76378 158.990239 
z
" clip-path="url(#p5b67688cd3)" style="fill: #7996a9; opacity: 0.58; stroke: #ffffff; stroke-width: 0.3; stroke-linejoin: miter"/>
   </g>
   <g id="patch_5">
    <path d="M 141.76378 166.185202 
C 204.730709 166.185202 228.71811 138.433201 291.685039 138.433201 
L 291.685039 148.71172 
C 228.71811 148.71172 204.730709 176.463721 141.76378 176.463721 
z
" clip-path="url(#p5b67688cd3)" style="fill: #da9d90; opacity: 0.58; stroke: #ffffff; stroke-width: 0.3; stroke-linejoin: miter"/>
   </g>
   <g id="patch_6">
    <path d="M 141.76378 176.463721 
C 204.730709 176.463721 228.71811 173.037548 291.685039 173.037548 
L 291.685039 217.577797 
C 228.71811 217.577797 204.730709 221.00397 141.76378 221.00397 
z
" clip-path="url(#p5b67688cd3)" style="fill: #da9d90; opacity: 0.58; stroke: #ffffff; stroke-width: 0.3; stroke-linejoin: miter"/>
   </g>
   <g id="patch_7">
    <path d="M 141.76378 221.00397 
C 204.730709 221.00397 228.71811 245.329798 291.685039 245.329798 
L 291.685039 259.034489 
C 228.71811 259.034489 204.730709 234.708661 141.76378 234.708661 
z
" clip-path="url(#p5b67688cd3)" style="fill: #da9d90; opacity: 0.58; stroke: #ffffff; stroke-width: 0.3; stroke-linejoin: miter"/>
   </g>
   <g id="patch_8">
    <path d="M 141.76378 241.903625 
C 204.730709 241.903625 228.71811 148.71172 291.685039 148.71172 
L 291.685039 152.137893 
C 228.71811 152.137893 204.730709 245.329798 141.76378 245.329798 
z
" clip-path="url(#p5b67688cd3)" style="fill: #88ad9c; opacity: 0.58; stroke: #ffffff; stroke-width: 0.3; stroke-linejoin: miter"/>
   </g>
   <g id="patch_9">
    <path d="M 141.76378 245.329798 
C 204.730709 245.329798 228.71811 217.577797 291.685039 217.577797 
L 291.685039 231.282488 
C 228.71811 231.282488 204.730709 259.034489 141.76378 259.034489 
z
" clip-path="url(#p5b67688cd3)" style="fill: #88ad9c; opacity: 0.58; stroke: #ffffff; stroke-width: 0.3; stroke-linejoin: miter"/>
   </g>
   <g id="patch_10">
    <path d="M 141.76378 259.034489 
C 204.730709 259.034489 228.71811 259.034489 291.685039 259.034489 
L 291.685039 310.427084 
C 228.71811 310.427084 204.730709 310.427084 141.76378 310.427084 
z
" clip-path="url(#p5b67688cd3)" style="fill: #88ad9c; opacity: 0.58; stroke: #ffffff; stroke-width: 0.3; stroke-linejoin: miter"/>
   </g>
   <g id="patch_11">
    <path d="M 291.685039 90.466779 
C 354.651969 90.466779 378.63937 90.466779 441.606299 90.466779 
L 441.606299 139.80367 
C 378.63937 139.80367 354.651969 139.80367 291.685039 139.80367 
z
" clip-path="url(#p5b67688cd3)" style="fill: #d7bb7f; opacity: 0.58; stroke: #ffffff; stroke-width: 0.3; stroke-linejoin: miter"/>
   </g>
   <g id="patch_12">
    <path d="M 291.685039 139.80367 
C 354.651969 139.80367 378.63937 157.791078 441.606299 157.791078 
L 441.606299 167.041745 
C 378.63937 167.041745 354.651969 149.054337 291.685039 149.054337 
z
" clip-path="url(#p5b67688cd3)" style="fill: #d7bb7f; opacity: 0.58; stroke: #ffffff; stroke-width: 0.3; stroke-linejoin: miter"/>
   </g>
   <g id="patch_13">
    <path d="M 291.685039 149.054337 
C 354.651969 149.054337 378.63937 242.588859 441.606299 242.588859 
L 441.606299 245.672415 
C 378.63937 245.672415 354.651969 152.137893 291.685039 152.137893 
z
" clip-path="url(#p5b67688cd3)" style="fill: #d7bb7f; opacity: 0.58; stroke: #ffffff; stroke-width: 0.3; stroke-linejoin: miter"/>
   </g>
   <g id="patch_14">
    <path d="M 291.685039 159.332856 
C 354.651969 159.332856 378.63937 139.80367 441.606299 139.80367 
L 441.606299 146.998633 
C 378.63937 146.998633 354.651969 166.527819 291.685039 166.527819 
z
" clip-path="url(#p5b67688cd3)" style="fill: #9e91ba; opacity: 0.58; stroke: #ffffff; stroke-width: 0.3; stroke-linejoin: miter"/>
   </g>
   <g id="patch_15">
    <path d="M 291.685039 166.527819 
C 354.651969 166.527819 378.63937 167.041745 441.606299 167.041745 
L 441.606299 224.601451 
C 378.63937 224.601451 354.651969 224.087525 291.685039 224.087525 
z
" clip-path="url(#p5b67688cd3)" style="fill: #9e91ba; opacity: 0.58; stroke: #ffffff; stroke-width: 0.3; stroke-linejoin: miter"/>
   </g>
   <g id="patch_16">
    <path d="M 291.685039 224.087525 
C 354.651969 224.087525 378.63937 245.672415 441.606299 245.672415 
L 441.606299 252.867378 
C 378.63937 252.867378 354.651969 231.282488 291.685039 231.282488 
z
" clip-path="url(#p5b67688cd3)" style="fill: #9e91ba; opacity: 0.58; stroke: #ffffff; stroke-width: 0.3; stroke-linejoin: miter"/>
   </g>
   <g id="patch_17">
    <path d="M 291.685039 238.477452 
C 354.651969 238.477452 378.63937 146.998633 441.606299 146.998633 
L 441.606299 150.596115 
C 378.63937 150.596115 354.651969 242.074933 291.685039 242.074933 
z
" clip-path="url(#p5b67688cd3)" style="fill: #cb8ea5; opacity: 0.58; stroke: #ffffff; stroke-width: 0.3; stroke-linejoin: miter"/>
   </g>
   <g id="patch_18">
    <path d="M 291.685039 242.074933 
C 354.651969 242.074933 378.63937 224.601451 441.606299 224.601451 
L 441.606299 235.393896 
C 378.63937 235.393896 354.651969 252.867378 291.685039 252.867378 
z
" clip-path="url(#p5b67688cd3)" style="fill: #cb8ea5; opacity: 0.58; stroke: #ffffff; stroke-width: 0.3; stroke-linejoin: miter"/>
   </g>
   <g id="patch_19">
    <path d="M 291.685039 252.867378 
C 354.651969 252.867378 378.63937 252.867378 441.606299 252.867378 
L 441.606299 310.427084 
C 378.63937 310.427084 354.651969 310.427084 291.685039 310.427084 
z
" clip-path="url(#p5b67688cd3)" style="fill: #cb8ea5; opacity: 0.58; stroke: #ffffff; stroke-width: 0.3; stroke-linejoin: miter"/>
   </g>
   <g id="patch_20">
    <path d="M 139.514961 90.466779 
L 144.012598 90.466779 
L 144.012598 158.990239 
L 139.514961 158.990239 
z
" clip-path="url(#p5b67688cd3)" style="fill: #7996a9; stroke: #ffffff; stroke-width: 0.4; stroke-linejoin: miter"/>
   </g>
   <g id="patch_21">
    <path d="M 139.514961 166.185202 
L 144.012598 166.185202 
L 144.012598 234.708661 
L 139.514961 234.708661 
z
" clip-path="url(#p5b67688cd3)" style="fill: #da9d90; stroke: #ffffff; stroke-width: 0.4; stroke-linejoin: miter"/>
   </g>
   <g id="patch_22">
    <path d="M 139.514961 241.903625 
L 144.012598 241.903625 
L 144.012598 310.427084 
L 139.514961 310.427084 
z
" clip-path="url(#p5b67688cd3)" style="fill: #88ad9c; stroke: #ffffff; stroke-width: 0.4; stroke-linejoin: miter"/>
   </g>
   <g id="patch_23">
    <path d="M 289.43622 90.466779 
L 293.933858 90.466779 
L 293.933858 152.137893 
L 289.43622 152.137893 
z
" clip-path="url(#p5b67688cd3)" style="fill: #d7bb7f; stroke: #ffffff; stroke-width: 0.4; stroke-linejoin: miter"/>
   </g>
   <g id="patch_24">
    <path d="M 289.43622 159.332856 
L 293.933858 159.332856 
L 293.933858 231.282488 
L 289.43622 231.282488 
z
" clip-path="url(#p5b67688cd3)" style="fill: #9e91ba; stroke: #ffffff; stroke-width: 0.4; stroke-linejoin: miter"/>
   </g>
   <g id="patch_25">
    <path d="M 289.43622 238.477452 
L 293.933858 238.477452 
L 293.933858 310.427084 
L 289.43622 310.427084 
z
" clip-path="url(#p5b67688cd3)" style="fill: #cb8ea5; stroke: #ffffff; stroke-width: 0.4; stroke-linejoin: miter"/>
   </g>
   <g id="patch_26">
    <path d="M 439.35748 90.466779 
L 443.855118 90.466779 
L 443.855118 150.596115 
L 439.35748 150.596115 
z
" clip-path="url(#p5b67688cd3)" style="fill: #8db6c1; stroke: #ffffff; stroke-width: 0.4; stroke-linejoin: miter"/>
   </g>
   <g id="patch_27">
    <path d="M 439.35748 157.791078 
L 443.855118 157.791078 
L 443.855118 235.393896 
L 439.35748 235.393896 
z
" clip-path="url(#p5b67688cd3)" style="fill: #b89f8a; stroke: #ffffff; stroke-width: 0.4; stroke-linejoin: miter"/>
   </g>
   <g id="patch_28">
    <path d="M 439.35748 242.588859 
L 443.855118 242.588859 
L 443.855118 310.427084 
L 439.35748 310.427084 
z
" clip-path="url(#p5b67688cd3)" style="fill: #a0b394; stroke: #ffffff; stroke-width: 0.4; stroke-linejoin: miter"/>
   </g>
   <g id="text_1">
    <text style="font-size: 7.5px; font-family: 'DejaVu Sans'; text-anchor: end" x="135.766929" y="126.79804" transform="rotate(-0 135.766929 126.79804)">Progenitor</text>
   </g>
   <g id="text_2">
    <text style="font-size: 7.5px; font-family: 'DejaVu Sans'; text-anchor: end" x="135.766929" y="202.516463" transform="rotate(-0 135.766929 202.516463)">Intermediate</text>
   </g>
   <g id="text_3">
    <text style="font-size: 7.5px; font-family: 'DejaVu Sans'; text-anchor: end" x="135.766929" y="278.234886" transform="rotate(-0 135.766929 278.234886)">Committed</text>
   </g>
   <g id="text_4">
    <text style="font-weight: 700; font-size: 8px; font-family: 'DejaVu Sans'; text-anchor: middle" x="141.76378" y="81.113327" transform="rotate(-0 141.76378 81.113327)">Input state</text>
   </g>
   <g id="text_5">
    <text style="font-weight: 700; font-size: 8px; font-family: 'DejaVu Sans'; text-anchor: middle" x="291.685039" y="81.113327" transform="rotate(-0 291.685039 81.113327)">Lineage branch</text>
   </g>
   <g id="text_6">
    <text style="font-size: 7.5px; font-family: 'DejaVu Sans'; text-anchor: start" x="447.60315" y="122.600979" transform="rotate(-0 447.60315 122.600979)">Fate A</text>
   </g>
   <g id="text_7">
    <text style="font-size: 7.5px; font-family: 'DejaVu Sans'; text-anchor: start" x="447.60315" y="198.662018" transform="rotate(-0 447.60315 198.662018)">Fate B</text>
   </g>
   <g id="text_8">
    <text style="font-size: 7.5px; font-family: 'DejaVu Sans'; text-anchor: start" x="447.60315" y="278.577503" transform="rotate(-0 447.60315 278.577503)">Fate C</text>
   </g>
   <g id="text_9">
    <text style="font-weight: 700; font-size: 8px; font-family: 'DejaVu Sans'; text-anchor: middle" x="441.606299" y="81.113327" transform="rotate(-0 441.606299 81.113327)">Outcome</text>
   </g>
   <g id="text_10">
    <text style="font-size: 7px; font-family: 'DejaVu Sans'; text-anchor: middle; fill: #65757f" x="291.685039" y="332.546457" transform="rotate(-0 291.685039 332.546457)">Total 300 coupling units</text>
   </g>
  </g>
  <g id="main_title">
   <text style="font-weight: 700; font-size: 11.5px; font-family: 'DejaVu Sans'; text-anchor: start; fill: #263641" x="44.645669" y="31.698833" transform="rotate(-0 44.645669 31.698833)">State transitions and conserved mass</text>
  </g>
  <g id="synthetic_disclosure">
   <text style="font-size: 6px; font-family: 'DejaVu Sans'; text-anchor: start; fill: #65757f" x="44.645669" y="373.110236" transform="rotate(-0 44.645669 373.110236)">SYNTHETIC EXAMPLE</text>
  </g>
 </g>
 <defs>
  <clipPath id="p5b67688cd3">
   <rect x="89.291339" y="68.88189" width="404.787402" height="248.740157"/>
  </clipPath>
 </defs>
</svg>
